<?xml version="1.0" standalone="no"?>
<!DOCTYPE svg PUBLIC "-//W3C//DTD SVG 20010904//EN"
 "http://www.w3.org/TR/2001/REC-SVG-20010904/DTD/svg10.dtd">
<svg version="1.0" xmlns="http://www.w3.org/2000/svg"
 width="887.000000pt" height="887.000000pt" viewBox="0 0 887.000000 887.000000"
 preserveAspectRatio="xMidYMid meet">
<metadata>
Created by potrace 1.11, written by Peter Selinger 2001-2013
</metadata>
<g transform="translate(0.000000,887.000000) scale(0.100000,-0.100000)"
fill="#000000" stroke="none">
<path d="M3145 8849 c-112 -26 -104 -24 -178 -57 -59 -27 -163 -89 -194 -117
-224 -199 -322 -400 -328 -680 -3 -111 0 -144 21 -225 13 -52 28 -105 34 -117
5 -13 16 -35 22 -50 24 -52 71 -128 111 -176 21 -27 38 -49 36 -51 -2 -1 -35
-17 -72 -34 -193 -89 -305 -254 -313 -462 -8 -205 96 -390 275 -486 l59 -32
-56 -38 c-32 -22 -73 -63 -94 -94 -45 -65 -95 -89 -197 -95 -124 -7 -235 31
-305 105 -116 122 -291 149 -430 65 -70 -42 -100 -75 -137 -150 -53 -110 -43
-236 27 -341 85 -129 253 -182 403 -130 43 16 141 81 141 95 0 21 67 71 122
92 78 28 196 31 278 6 50 -14 60 -23 95 -74 22 -31 65 -75 95 -96 32 -23 44
-36 30 -31 -44 13 -192 6 -267 -14 -123 -33 -219 -97 -338 -225 -18 -18 -98
-172 -103 -196 -1 -7 -9 -39 -16 -71 -47 -201 38 -454 202 -600 67 -60 191
-124 279 -144 60 -14 231 -15 282 -2 148 36 291 130 368 241 21 30 41 53 46
52 7 -2 61 -77 208 -292 145 -212 226 -390 250 -556 11 -80 8 -363 -7 -464
l-5 -40 173 -74 c95 -41 205 -89 243 -107 39 -18 205 -91 370 -164 165 -72
320 -141 345 -152 25 -11 97 -43 160 -70 63 -28 138 -61 165 -73 28 -13 111
-50 185 -83 74 -33 234 -103 355 -157 121 -54 234 -103 250 -111 17 -7 154
-68 305 -135 151 -67 289 -127 306 -135 l30 -13 27 157 c29 175 29 172 52 262
43 169 113 324 157 347 22 12 109 12 693 1 110 -2 214 4 275 17 211 44 398
223 402 385 2 82 -9 131 -56 254 -90 235 -89 294 14 409 94 106 104 123 90
156 -6 16 -34 55 -61 87 -27 32 -49 61 -49 65 0 8 35 44 98 101 67 62 65 113
-9 234 -55 90 -77 137 -88 184 -12 52 2 103 32 123 23 15 38 20 167 52 97 25
169 63 228 122 51 51 52 52 52 112 0 53 -6 72 -46 148 -26 49 -74 129 -107
178 -67 101 -230 314 -278 364 -50 52 -275 341 -336 430 l-29 44 19 66 c12 42
20 105 22 176 3 97 -2 141 -29 292 -10 55 -66 213 -112 315 -148 335 -395 624
-713 836 -166 110 -402 220 -616 286 -91 29 -321 82 -386 90 -24 3 -55 8 -68
11 -139 27 -654 27 -814 0 -24 -5 -130 -21 -192 -30 -113 -17 -365 -79 -521
-128 -3 -1 -16 25 -29 58 -99 262 -315 459 -592 541 -119 35 -309 41 -428 13z"/>
<path d="M2007 7539 c-144 -22 -241 -135 -240 -280 0 -54 6 -76 32 -125 109
-203 398 -195 497 14 24 50 26 64 21 132 -4 63 -10 85 -37 128 -44 72 -111
115 -205 134 -11 2 -41 1 -68 -3z"/>
<path d="M589 2309 c-8 -5 -99 -423 -99 -455 0 -17 276 -9 328 10 102 37 172
133 174 237 3 152 -72 207 -285 212 -60 1 -113 -1 -118 -4z m244 -83 c54 -23
71 -50 72 -114 0 -44 -6 -67 -27 -104 -38 -64 -89 -87 -196 -90 -44 -2 -83 0
-87 3 -3 3 8 74 25 157 16 83 30 153 30 156 0 12 152 5 183 -8z"/>
<path d="M1257 2310 c-82 -21 -139 -66 -179 -143 -18 -33 -23 -59 -23 -123 0
-69 3 -85 25 -117 36 -53 90 -79 174 -85 164 -10 289 95 300 252 7 93 -27 162
-97 197 -44 23 -146 32 -200 19z m123 -73 c51 -10 90 -63 90 -120 0 -125 -103
-220 -218 -202 -94 15 -134 85 -107 188 27 105 119 158 235 134z"/>
<path d="M1709 2312 c-12 -2 -26 -51 -58 -215 -55 -273 -54 -251 -8 -252 30
-1 38 3 42 19 13 56 26 120 30 149 3 17 11 57 18 87 l12 54 54 -127 c62 -149
74 -156 131 -79 19 26 37 49 40 52 3 3 28 33 54 68 27 34 52 62 56 62 4 0 1
-28 -6 -62 -8 -35 -16 -79 -20 -98 -3 -19 -10 -52 -15 -74 -12 -45 -10 -49 36
-52 29 -2 36 2 40 20 8 37 28 140 31 156 2 8 6 31 10 50 4 19 8 42 10 50 5 24
17 84 20 95 1 6 5 29 9 52 6 35 5 42 -11 45 -40 8 -61 -7 -124 -89 -104 -135
-162 -208 -170 -211 -3 -1 -33 65 -65 147 -60 153 -68 163 -116 153z"/>
<path d="M2339 2309 c-10 -6 -59 -215 -73 -315 -4 -22 -10 -54 -14 -70 -5 -16
-8 -40 -8 -54 1 -22 5 -25 40 -25 27 0 40 5 41 15 2 8 20 98 40 200 21 102 38
200 39 219 1 31 -2 34 -27 35 -15 1 -33 -1 -38 -5z"/>
<path d="M2564 2312 c-22 -3 -23 -7 -50 -147 -2 -11 -11 -55 -20 -98 -8 -42
-18 -90 -20 -105 -3 -15 -9 -45 -14 -66 -5 -22 -7 -42 -5 -46 2 -3 20 -5 41
-5 40 0 44 7 58 85 11 65 46 233 48 235 2 2 46 -70 97 -160 l95 -162 35 2 c38
1 38 2 55 100 3 17 8 41 11 55 4 21 19 96 41 210 3 14 9 42 14 63 5 26 4 37
-4 38 -6 0 -24 2 -39 3 -16 1 -30 -1 -33 -5 -4 -7 -31 -131 -40 -184 -3 -16
-10 -55 -17 -85 -13 -54 -13 -54 -26 -30 -60 112 -178 299 -190 302 -9 2 -26
2 -37 0z"/>
<path d="M3086 2311 c-4 -7 -28 -119 -42 -196 -2 -16 -14 -73 -24 -125 -30
-149 -31 -142 13 -145 25 -2 40 2 44 10 7 21 92 450 89 453 -6 6 -77 8 -80 3z"/>
<path d="M3423 2311 c-83 -21 -156 -82 -188 -158 -21 -49 -26 -134 -12 -181
17 -52 74 -106 131 -122 28 -8 54 -22 63 -36 8 -13 38 -35 66 -49 43 -21 61
-24 107 -19 38 4 62 12 77 27 22 21 22 23 4 46 -18 23 -19 23 -42 7 -31 -21
-81 -20 -110 2 l-22 19 29 6 c16 3 52 21 79 39 121 82 153 269 62 365 -48 51
-156 75 -244 54z m164 -97 c59 -45 63 -138 10 -220 -64 -97 -235 -104 -283
-12 -20 39 -14 124 13 169 52 90 184 121 260 63z"/>
<path d="M3866 2310 c-11 -3 -21 -17 -23 -31 -2 -13 -11 -60 -19 -104 -26
-125 -28 -137 -28 -187 -1 -81 56 -136 150 -145 107 -10 190 31 230 115 10 20
32 107 50 192 l31 155 -26 5 c-33 7 -61 1 -62 -14 0 -6 -2 -18 -4 -26 -2 -8
-6 -28 -9 -45 -3 -16 -8 -39 -10 -50 -2 -11 -10 -49 -16 -85 -25 -128 -67
-175 -153 -175 -41 1 -53 5 -73 28 -13 16 -24 40 -24 55 0 21 33 202 53 293 3
15 -43 28 -67 19z"/>
<path d="M4391 2310 c-7 -5 -14 -31 -27 -100 -3 -14 -13 -65 -24 -115 -10 -49
-22 -106 -25 -125 -3 -19 -10 -53 -15 -75 -5 -22 -7 -42 -4 -44 3 -3 80 -6
170 -6 177 -1 184 1 184 53 0 18 -9 19 -125 19 -69 0 -127 2 -130 4 -2 2 2 31
9 64 l12 60 106 0 c59 0 111 5 117 10 5 6 11 21 13 35 l3 25 -109 2 c-60 1
-110 4 -111 5 -1 2 3 29 9 61 l10 57 127 0 c106 0 128 3 133 16 10 26 7 54 -6
55 -57 4 -312 3 -317 -1z"/>
<path d="M3280 1515 c-215 -67 -249 -390 -48 -450 31 -9 59 -26 78 -49 31 -35
84 -60 130 -60 47 0 97 14 114 33 15 17 15 20 -2 41 -18 22 -20 23 -43 7 -29
-21 -77 -21 -103 -2 -23 17 -22 18 26 38 115 48 176 148 170 276 -7 139 -157
217 -322 166z m150 -64 c23 -2 68 -44 80 -75 12 -32 4 -109 -15 -146 -32 -62
-96 -100 -170 -102 -88 -1 -148 58 -140 141 7 87 35 130 108 169 33 18 60 20
137 13z"/>
<path d="M3742 1521 c-13 -8 -65 -267 -64 -318 2 -93 63 -145 171 -149 83 -3
142 23 187 83 29 38 46 91 70 208 23 118 32 170 29 175 -4 7 -73 6 -79 -1 -2
-2 -15 -67 -30 -144 -29 -151 -47 -199 -86 -227 -41 -29 -115 -28 -150 2 -32
27 -32 83 -3 219 37 173 37 156 -2 157 -19 0 -38 -2 -43 -5z"/>
<path d="M4402 1521 c-5 -3 -22 -26 -37 -51 -26 -42 -78 -121 -212 -327 -29
-45 -53 -83 -53 -85 0 -2 21 -2 47 0 46 3 49 6 78 55 l31 51 117 1 117 1 10
-36 c5 -19 10 -43 10 -52 0 -15 9 -18 45 -18 25 0 45 3 45 8 -1 4 -27 108 -58
231 l-57 225 -37 1 c-20 1 -41 -1 -46 -4z m52 -194 l22 -94 -87 0 -87 0 28 46
c16 25 43 70 60 100 17 29 34 51 37 48 3 -3 15 -48 27 -100z"/>
<path d="M4762 1521 c-8 -5 -21 -53 -37 -142 -3 -13 -18 -89 -34 -169 -16 -81
-25 -147 -20 -150 15 -10 79 1 80 14 1 13 -3 -3 48 246 22 107 38 197 36 199
-7 7 -63 8 -73 2z"/>
<path d="M4971 1521 c-5 -4 -12 -22 -15 -41 -7 -43 -7 -45 -49 -253 l-33 -167
42 0 42 0 16 73 c8 39 23 111 32 160 18 94 20 94 57 24 7 -12 45 -76 84 -143
l71 -120 36 4 c25 3 36 9 37 21 0 9 2 23 5 31 4 17 22 103 29 139 2 14 9 47
15 75 14 71 19 96 25 131 3 17 8 38 11 48 3 10 0 17 -8 18 -7 1 -26 2 -41 3
-32 3 -34 1 -42 -45 -3 -19 -8 -41 -10 -49 -2 -8 -6 -32 -10 -53 -3 -22 -9
-58 -15 -80 -5 -23 -12 -55 -15 -71 -6 -27 -10 -23 -67 75 -33 57 -70 120 -80
139 -40 69 -56 86 -82 86 -15 0 -30 -2 -35 -5z"/>
<path d="M5443 1498 c-3 -15 -6 -31 -7 -35 0 -5 26 -9 59 -10 33 -1 67 -2 76
-2 14 -1 11 -26 -22 -188 -21 -104 -38 -191 -39 -195 0 -5 19 -8 43 -8 l43 0
38 195 c21 107 42 195 47 196 5 0 40 1 78 2 68 0 69 1 75 30 3 16 6 32 6 36 0
3 -88 6 -196 6 l-195 0 -6 -27z"/>
<path d="M5918 1520 c-7 -3 -14 -9 -15 -15 -1 -5 -11 -59 -23 -120 -12 -60
-24 -123 -27 -140 -10 -62 -33 -168 -39 -176 -3 -5 19 -9 48 -9 29 -1 108 -1
176 -2 68 0 124 1 126 3 2 2 7 19 11 37 l7 32 -131 0 c-72 0 -131 4 -131 8 0
5 5 34 11 65 l12 57 109 -1 c61 0 111 1 113 3 1 2 6 18 10 36 l7 32 -112 0
-112 0 5 33 c9 62 19 87 36 88 9 0 64 1 123 2 58 1 108 4 111 7 9 10 17 60 10
61 -28 4 -315 3 -325 -1z"/>
<path d="M6362 1521 c-8 -5 -16 -36 -29 -114 -2 -15 -19 -99 -37 -187 -22
-105 -29 -160 -22 -161 16 -2 71 3 74 6 1 1 4 11 6 21 2 11 11 53 20 94 8 41
18 89 21 105 21 111 11 116 109 -53 49 -84 94 -159 101 -165 7 -7 25 -12 41
-12 29 2 36 14 48 88 6 37 8 52 41 207 37 180 37 174 -10 174 l-40 1 -21 -105
c-12 -58 -27 -131 -34 -163 l-12 -58 -89 151 c-49 84 -89 156 -89 161 0 5 -6
9 -12 10 -7 0 -23 2 -35 3 -12 1 -26 0 -31 -3z"/>
<path d="M6895 1520 c-1 -3 -6 -23 -10 -45 -4 -22 -9 -51 -12 -65 -2 -14 -19
-98 -37 -187 l-33 -163 42 0 c36 0 44 4 48 23 3 12 18 83 32 157 15 74 28 136
30 138 2 3 41 -60 70 -113 64 -119 121 -204 139 -207 44 -8 54 1 65 60 18 99
21 114 51 260 17 79 30 145 30 146 0 4 -79 0 -84 -5 -3 -2 -8 -20 -11 -39 -3
-19 -8 -42 -10 -50 -2 -8 -7 -30 -10 -48 -3 -18 -12 -64 -20 -103 -8 -39 -15
-73 -15 -77 0 -7 -26 37 -147 244 -45 77 -48 81 -81 80 -19 -1 -35 -3 -37 -6z"/>
<path d="M7441 1520 c-6 -4 -57 -243 -87 -410 -3 -14 -7 -31 -9 -37 -2 -7 -1
-13 3 -13 94 -4 331 -2 339 3 6 4 13 20 15 37 l5 30 -133 0 -132 0 8 38 c5 20
11 49 14 64 l6 26 111 1 c61 0 112 1 114 3 1 2 5 18 8 36 l7 32 -114 0 -113 0
10 53 c5 28 13 56 17 60 5 5 63 9 129 10 l122 1 5 25 c3 14 7 31 9 36 3 10
-319 15 -334 5z"/>
<path d="M1911 868 c-23 -33 -41 -63 -41 -68 0 -5 15 -8 33 -7 27 2 38 11 75
64 23 34 42 65 42 67 0 3 -15 5 -34 4 -30 -1 -39 -9 -75 -60z"/>
<path d="M531 747 c-18 -4 -38 -21 -50 -41 -18 -29 -21 -49 -21 -159 0 -213
-3 -210 281 -211 l209 -1 0 31 0 32 -200 0 c-132 0 -205 3 -213 11 -16 13 -21
235 -6 264 9 15 30 17 213 17 l204 0 4 30 c5 35 31 31 -229 33 -90 1 -176 -1
-192 -6z"/>
<path d="M1074 748 c-3 -4 -5 -85 -5 -180 -1 -259 -4 -237 29 -234 l27 3 3
177 2 176 174 0 c96 0 181 -3 190 -6 23 -9 22 -90 -1 -102 -10 -4 -89 -8 -175
-8 l-156 1 -4 -31 -4 -31 169 0 c98 0 172 -4 178 -10 5 -5 10 -44 11 -86 1
-48 5 -78 12 -79 31 -4 41 -3 47 4 10 14 1 168 -10 182 -8 10 -8 22 3 47 22
53 11 119 -24 152 -17 15 -43 27 -58 28 -148 4 -405 2 -408 -3z"/>
<path d="M1786 749 c-65 -7 -96 -41 -97 -107 -3 -249 1 -272 56 -294 24 -9 90
-13 232 -13 l198 1 3 31 3 31 -200 -1 c-148 0 -204 3 -216 13 -19 16 -21 100
-2 101 6 1 103 1 215 1 l203 0 -3 32 -3 31 -212 0 -213 0 0 45 c0 25 5 51 12
58 9 9 70 12 215 12 l203 0 0 30 c0 17 -3 30 -7 31 -47 4 -350 3 -387 -2z"/>
<path d="M2360 743 c-19 -7 -36 -13 -36 -13 -1 0 -8 -17 -16 -37 -11 -28 -14
-78 -12 -188 1 -82 2 -155 3 -162 0 -7 13 -10 29 -9 27 3 27 4 28 83 0 43 3
83 6 89 5 7 238 10 361 5 15 -1 17 -12 17 -89 0 -87 0 -88 25 -87 14 1 28 5
32 9 4 3 6 81 6 172 -2 176 -7 199 -54 225 -31 16 -343 18 -389 2z m368 -65
c7 -7 12 -33 12 -58 l0 -45 -184 0 c-102 0 -188 4 -192 8 -12 12 -5 90 9 99
21 13 341 10 355 -4z"/>
<path d="M2919 750 c-1 -3 -2 -16 -3 -30 l-1 -25 112 -3 111 -3 0 -132 c0
-245 -2 -228 30 -224 l27 4 3 176 2 177 110 0 c81 0 110 3 111 13 2 16 -2 41
-7 46 -5 6 -494 7 -495 1z"/>
<path d="M3550 753 c-13 -3 -15 -33 -14 -203 1 -110 4 -204 8 -208 4 -4 19 -7
32 -7 l24 -1 0 207 c0 189 -2 207 -17 211 -10 2 -25 3 -33 1z"/>
<path d="M3772 741 c-50 -23 -60 -53 -60 -191 0 -136 11 -180 50 -201 16 -8
79 -13 197 -14 255 -1 261 3 261 207 0 209 0 209 -244 211 -130 2 -183 -2
-204 -12z m376 -68 c14 -28 12 -251 -3 -263 -18 -15 -342 -17 -357 -2 -18 18
-18 250 0 268 10 11 52 14 182 14 151 0 170 -2 178 -17z"/>
<path d="M4792 752 c-9 -3 -12 -50 -12 -178 0 -96 -3 -174 -6 -174 -3 0 -49
46 -102 102 -236 248 -235 248 -272 248 -64 0 -64 0 -65 -202 -1 -101 1 -190
3 -198 2 -10 14 -16 30 -15 l27 0 1 173 c0 95 3 175 6 178 3 3 25 -16 49 -42
24 -25 64 -68 89 -94 25 -26 77 -81 116 -122 70 -75 98 -96 122 -92 6 1 21 2
32 3 29 2 33 32 34 232 1 171 0 178 -19 182 -12 2 -26 2 -33 -1z"/>
<path d="M5046 749 c-76 -12 -113 -94 -80 -176 22 -51 42 -57 223 -59 209 -3
211 -4 211 -53 0 -63 -7 -65 -231 -63 l-199 1 0 -32 0 -32 203 0 c223 1 257 8
277 54 17 41 15 107 -4 136 -29 44 -50 49 -231 50 -93 0 -176 4 -182 8 -7 5
-13 23 -13 42 0 68 -9 65 221 65 l209 0 0 30 c0 22 -5 30 -17 31 -88 4 -358 3
-387 -2z"/>
<path d="M5899 753 c-15 -4 -16 -24 -15 -176 2 -189 6 -206 58 -229 41 -18
261 -18 296 1 17 9 27 9 44 0 35 -19 264 -18 302 0 50 26 56 49 56 232 0 151
-2 167 -17 171 -47 11 -48 7 -47 -162 1 -113 -2 -164 -11 -176 -10 -15 -30
-17 -129 -16 -75 0 -122 5 -131 12 -12 10 -15 44 -14 171 0 88 -2 163 -5 168
-3 4 -17 6 -31 3 l-25 -4 0 -168 c0 -152 -2 -169 -17 -174 -37 -12 -244 -9
-256 3 -8 8 -11 64 -12 176 0 173 -1 177 -46 168z"/>
<path d="M6854 752 c-87 -14 -102 -43 -102 -202 0 -136 11 -180 49 -201 26
-13 438 -20 440 -7 1 4 2 15 2 23 0 8 -1 19 -2 24 0 5 -91 9 -202 8 -124 0
-204 4 -210 10 -15 15 -20 91 -6 100 6 3 103 6 217 6 l206 0 -1 29 c0 15 -4
29 -10 29 -5 1 -98 3 -205 4 -107 1 -200 3 -206 4 -17 2 -11 91 7 102 8 5 104
9 215 9 l201 0 -1 25 c-1 13 -5 27 -9 31 -6 7 -345 12 -383 6z"/>
<path d="M7360 545 l0 -210 212 1 c222 1 258 7 278 44 20 37 23 105 7 136 -13
25 -13 32 -2 48 31 42 7 151 -39 175 -15 9 -91 13 -239 14 l-217 2 0 -210z
m429 136 c17 -11 22 -88 7 -99 -6 -5 -86 -8 -178 -7 l-168 1 0 -32 0 -31 167
0 c143 0 168 -3 178 -17 14 -19 12 -73 -2 -87 -8 -8 -219 -14 -344 -10 l-27 1
0 145 0 145 177 0 c97 0 182 -4 190 -9z"/>
<path d="M528 122 l-68 -3 0 -59 0 -60 3722 2 3722 3 1 47 c1 26 -2 53 -5 59
-5 8 -1005 11 -3656 12 -2007 1 -3679 1 -3716 -1z"/>
</g>
</svg>
